<svg xmlns="http://www.w3.org/2000/svg" xmlns:xlink="http://www.w3.org/1999/xlink" viewBox="0 0 31.13 46">
  <defs>
    <style>
      .cls-1 {
        fill: url(#linear-gradient);
      }

      .cls-2 {
        fill: url(#linear-gradient-5);
      }

      .cls-3 {
        filter: url(#Path_427);
      }
    </style>
    <linearGradient id="linear-gradient" x1="0.5" x2="0.5" y2="1" gradientUnits="objectBoundingBox">
      <stop offset="0" stop-color="#2f80ed"/>
      <stop offset="1" stop-color="#003ce1"/>
    </linearGradient>
    <filter id="Path_427" x="0" y="0" width="31.13" height="46" filterUnits="userSpaceOnUse">
      <feOffset dy="1" input="SourceAlpha"/>
      <feGaussianBlur stdDeviation="1" result="blur"/>
      <feFlood flood-opacity="0.2"/>
      <feComposite operator="in" in2="blur"/>
      <feComposite in="SourceGraphic"/>
    </filter>
    <linearGradient id="linear-gradient-5" x1="-1.4" y1="-0.563" x2="0.691" y2="0.643" gradientUnits="objectBoundingBox">
      <stop offset="0"/>
      <stop offset="1" stop-opacity="0"/>
    </linearGradient>
  </defs>
  <g id="Layer_1" data-name="Layer 1" transform="translate(3 2)">
    <path id="Path_425" data-name="Path 425" class="cls-1" d="M72.334,208.2a.634.634,0,1,0,.644.634A.644.644,0,0,0,72.334,208.2Z" transform="translate(-62.468 -181.366)"/>
    <ellipse id="Ellipse_333" data-name="Ellipse 333" class="cls-1" cx="0.651" cy="0.634" rx="0.651" ry="0.634" transform="translate(12.076 26.833)"/>
    <path id="Path_426" data-name="Path 426" class="cls-1" d="M116.784,208.2a.634.634,0,1,0,.644.634A.644.644,0,0,0,116.784,208.2Z" transform="translate(-101.189 -181.366)"/>
    <g class="cls-3" transform="matrix(1, 0, 0, 1, -3, -2)">
      <path id="Path_427-2" data-name="Path 427" class="cls-1" d="M0,27.435A12.565,12.565,0,1,0,6.444,16.461V10.938A12.561,12.561,0,0,0,.064,0m12.5,33.686h-7.2l2.24-2.449h0a6.251,6.251,0,1,1,4.957,2.449Z" transform="translate(3 2)"/>
    </g>
    <path id="Path_428" data-name="Path 428" class="cls-2" d="M56.122,115.37A12.5,12.5,0,0,0,50,116.962v9.7h0a6.251,6.251,0,0,1,12.3.308,39.231,39.231,0,0,1,5.747-2.32l.129-.052v-.232A12.573,12.573,0,0,0,56.122,115.37Z" transform="translate(-43.556 -100.501)"/>
  </g>
</svg>
